<?xml version="1.0" encoding="utf-8"?>
<!-- Generator: Adobe Illustrator 17.0.0, SVG Export Plug-In . SVG Version: 6.00 Build 0)  -->
<!DOCTYPE svg PUBLIC "-//W3C//DTD SVG 1.1//EN" "http://www.w3.org/Graphics/SVG/1.1/DTD/svg11.dtd">
<svg version="1.1" id="Layer_1" xmlns="http://www.w3.org/2000/svg" xmlns:xlink="http://www.w3.org/1999/xlink" x="0px" y="0px"
	 width="35px" height="35px" viewBox="0 0 35 35" enable-background="new 0 0 35 35" xml:space="preserve">
<g transform="translate(-510 -200)">
	<g>
		<path fill="#FFFFFF" d="M512.692,203.366v28.269c0,1.857,1.509,3.365,3.365,3.365h26.25v-28.269v-0.673v-0.673h-26.25
			c-1.113,0-2.019-0.906-2.019-2.019c0-1.114,0.906-2.019,2.019-2.019h26.25v-0.673V200h-26.25
			C514.201,200,512.692,201.51,512.692,203.366z M540.961,233.654h-24.904c-1.114,0-2.019-0.906-2.019-2.019V206.04
			c0.564,0.426,1.259,0.69,2.019,0.69h24.904V233.654z"/>
		<rect x="516.731" y="202.693" fill="#FFFFFF" width="24.231" height="1.346"/>
		<path fill="#FFFFFF" d="M538.269,209.423H516.73v13.462h21.539V209.423z M536.923,221.538h-18.846v-2.693h5.663l1.068-1.068
			l1.346,1.346l4.039-4.038l3.76,3.76h2.971L536.923,221.538L536.923,221.538z M536.923,217.5h-2.414l-4.317-4.317l-4.039,4.038
			l-1.346-1.346l-1.625,1.625h-5.106v-6.731h18.846V217.5z"/>
	</g>
</g>
</svg>
