<?xml version="1.0" encoding="utf-8"?>
<!-- Generator: Adobe Illustrator 17.0.0, SVG Export Plug-In . SVG Version: 6.00 Build 0)  -->
<!DOCTYPE svg PUBLIC "-//W3C//DTD SVG 1.1//EN" "http://www.w3.org/Graphics/SVG/1.1/DTD/svg11.dtd">
<svg version="1.1" id="Layer_1" xmlns="http://www.w3.org/2000/svg" xmlns:xlink="http://www.w3.org/1999/xlink" x="0px" y="0px"
	 width="150px" height="320px" viewBox="0 0 150 320" enable-background="new 0 0 150 320" xml:space="preserve">
<g>
	<g>
		<circle fill="#FFFFFF" cx="75" cy="245" r="75"/>
	</g>
	<g transform="translate(-510 -200)">
		<g>
			<path fill="#1C3664" d="M555.385,416.731v56.538c0,3.713,3.018,6.731,6.731,6.731h52.5v-56.538v-1.346v-1.346h-52.5
				c-2.227,0-4.038-1.812-4.038-4.038s1.812-4.038,4.038-4.038h52.5v-1.346V410h-52.5C558.403,410,555.385,413.021,555.385,416.731z
				 M611.923,477.308h-49.808c-2.227,0-4.038-1.812-4.038-4.038V422.08c1.128,0.853,2.517,1.381,4.038,1.381h49.808V477.308z"/>
			<rect x="563.462" y="415.385" fill="#1C3664" width="48.462" height="2.692"/>
			<path fill="#1C3664" d="M606.538,428.846h-43.077v26.923h43.077V428.846z M603.846,453.077h-37.692v-5.385h11.326l2.135-2.135
				l2.692,2.692l8.077-8.077l7.52,7.52h5.942V453.077z M603.846,445h-4.827l-8.634-8.634l-8.077,8.077l-2.692-2.692l-3.25,3.25
				h-10.212v-13.462h37.692V445z"/>
		</g>
	</g>
</g>
<g>
	<g transform="translate(-510 -200)">
		<g>
			<path fill="#FFFFFF" d="M555.385,246.731v56.538c0,3.713,3.018,6.731,6.731,6.731h52.5v-56.538v-1.346v-1.346h-52.5
				c-2.227,0-4.038-1.812-4.038-4.038c0-2.227,1.812-4.038,4.038-4.038h52.5v-1.346V240h-52.5
				C558.403,240,555.385,243.021,555.385,246.731z M611.923,307.308h-49.808c-2.227,0-4.038-1.812-4.038-4.038V252.08
				c1.128,0.853,2.517,1.381,4.038,1.381h49.808V307.308z"/>
			<rect x="563.462" y="245.385" fill="#FFFFFF" width="48.462" height="2.692"/>
			<path fill="#FFFFFF" d="M606.538,258.846h-43.077v26.923h43.077V258.846z M603.846,283.077h-37.692v-5.385h11.326l2.135-2.135
				l2.692,2.692l8.077-8.077l7.52,7.52h5.942V283.077z M603.846,275h-4.827l-8.634-8.634l-8.077,8.077l-2.692-2.692l-3.25,3.25
				h-10.212v-13.462h37.692V275z"/>
		</g>
	</g>
	<path fill="#FFFFFF" d="M75,1c40.804,0,74,33.196,74,74s-33.196,74-74,74S1,115.804,1,75S34.196,1,75,1 M75,0
		C33.579,0,0,33.579,0,75s33.579,75,75,75s75-33.579,75-75S116.421,0,75,0L75,0z"/>
</g>
</svg>
