<?xml version="1.0" encoding="utf-8"?>
<!-- Generator: Adobe Illustrator 17.0.0, SVG Export Plug-In . SVG Version: 6.00 Build 0)  -->
<!DOCTYPE svg PUBLIC "-//W3C//DTD SVG 1.1//EN" "http://www.w3.org/Graphics/SVG/1.1/DTD/svg11.dtd">
<svg version="1.1" id="Layer_1" xmlns="http://www.w3.org/2000/svg" xmlns:xlink="http://www.w3.org/1999/xlink" x="0px" y="0px"
	 width="35px" height="35px" viewBox="0 0 35 35" enable-background="new 0 0 35 35" xml:space="preserve">
<g>
	<path fill="#FFFFFF" d="M24.838,12.946c0-1.192-0.414-2.357-1.172-3.272l0,0c-0.689-0.84-1.688-1.426-2.818-1.66l-0.241-0.048
		l-0.2,0.138c-0.393,0.275-1.936,2.177-2.915,3.403c-0.979-1.226-2.521-3.128-2.915-3.403l-0.2-0.138l-0.241,0.048
		c-1.13,0.235-2.129,0.82-2.818,1.66c-0.751,0.917-1.171,2.08-1.171,3.272v3.424h14.675v-3.424H24.838z M23.708,15.24H11.292v-2.294
		c0-0.93,0.324-1.84,0.91-2.556c0.468-0.572,1.137-0.992,1.895-1.205c0.503,0.531,1.812,2.129,2.963,3.582l0.441,0.558l0.441-0.558
		c1.151-1.461,2.459-3.059,2.956-3.583c0.765,0.213,1.426,0.634,1.895,1.205c0.585,0.716,0.91,1.626,0.91,2.556v2.294L23.708,15.24
		L23.708,15.24z"/>
	<path fill="#FFFFFF" d="M3.39,22.578c0,2.177,1.771,3.954,3.955,3.954s3.955-1.771,3.955-3.954c0-2.184-1.771-3.954-3.955-3.954
		c-1.267,0-2.391,0.599-3.114,1.529c-0.172-0.875-0.268-1.764-0.268-2.66c0-6.021,3.934-11.258,9.645-12.966
		c0.283,1.902,1.922,3.369,3.907,3.369c1.978,0,3.617-1.468,3.907-3.369c5.712,1.708,9.646,6.945,9.646,12.966
		c0,0.896-0.097,1.785-0.269,2.66c-0.723-0.93-1.847-1.529-3.114-1.529c-2.177,0-3.954,1.771-3.954,3.954
		c0,2.184,1.771,3.954,3.954,3.954s3.954-1.771,3.954-3.954c0-0.269-0.028-0.53-0.076-0.785c0.427-1.385,0.64-2.832,0.64-4.292
		c0-6.642-4.417-12.395-10.776-14.145C21.117,1.461,19.478,0,17.5,0s-3.617,1.461-3.899,3.362C7.235,5.105,2.825,10.858,2.825,17.5
		c0,1.46,0.221,2.908,0.64,4.292C3.417,22.047,3.39,22.309,3.39,22.578z M27.662,25.403c-1.557,0-2.825-1.268-2.825-2.825
		s1.268-2.825,2.825-2.825s2.825,1.268,2.825,2.825S29.22,25.403,27.662,25.403z M17.5,1.13c1.557,0,2.825,1.267,2.825,2.825
		c0,1.557-1.268,2.825-2.825,2.825s-2.825-1.267-2.825-2.825S15.943,1.13,17.5,1.13z M7.337,19.76c1.557,0,2.825,1.268,2.825,2.825
		S8.895,25.41,7.337,25.41s-2.825-1.268-2.825-2.825C4.513,21.028,5.781,19.76,7.337,19.76z"/>
	<path fill="#FFFFFF" d="M33.828,28.303L33.828,28.303c-0.689-0.84-1.688-1.426-2.818-1.66l-0.241-0.048l-0.2,0.138
		c-0.393,0.276-1.936,2.177-2.915,3.403c-0.979-1.227-2.521-3.128-2.915-3.403l-0.2-0.138l-0.24,0.048
		c-1.13,0.235-2.129,0.82-2.818,1.66c-0.572,0.696-0.951,1.543-1.096,2.432c-1.895,0.414-3.893,0.414-5.787,0
		c-0.145-0.889-0.523-1.729-1.096-2.432l0,0c-0.689-0.84-1.688-1.426-2.818-1.66l-0.241-0.048l-0.2,0.138
		c-0.392,0.276-1.936,2.177-2.914,3.403c-0.979-1.227-2.521-3.128-2.914-3.403l-0.2-0.138l-0.241,0.048
		c-1.13,0.235-2.129,0.82-2.818,1.66C0.413,29.22,0,30.384,0,31.576V35h14.675v-3.101c0.923,0.179,1.874,0.276,2.825,0.276
		s1.895-0.097,2.825-0.276V35H35v-3.424C35,30.384,34.586,29.22,33.828,28.303z M13.546,33.87H1.13v-2.294
		c0-0.93,0.324-1.84,0.91-2.556c0.469-0.572,1.137-0.992,1.895-1.206c0.503,0.53,1.812,2.129,2.962,3.583l0.441,0.558l0.441-0.558
		c1.15-1.46,2.459-3.059,2.955-3.583c0.765,0.214,1.426,0.634,1.894,1.206c0.585,0.716,0.91,1.626,0.91,2.556v2.294H13.546z
		 M33.87,33.87H21.454v-2.294c0-0.93,0.324-1.84,0.91-2.556c0.468-0.572,1.137-0.992,1.895-1.206
		c0.503,0.53,1.812,2.129,2.963,3.583l0.441,0.558l0.441-0.558c1.151-1.46,2.459-3.059,2.956-3.583
		c0.765,0.214,1.426,0.634,1.895,1.206c0.585,0.716,0.91,1.626,0.91,2.556v2.294H33.87z"/>
	<rect x="16.935" y="18.63" fill="#FFFFFF" width="1.13" height="1.13"/>
	<rect x="19.195" y="18.63" fill="#FFFFFF" width="1.13" height="1.13"/>
	<rect x="14.675" y="18.63" fill="#FFFFFF" width="1.13" height="1.13"/>
</g>
</svg>
