<?xml version="1.0" encoding="utf-8"?>
<!-- Generator: Adobe Illustrator 17.0.0, SVG Export Plug-In . SVG Version: 6.00 Build 0)  -->
<!DOCTYPE svg PUBLIC "-//W3C//DTD SVG 1.1//EN" "http://www.w3.org/Graphics/SVG/1.1/DTD/svg11.dtd">
<svg version="1.1" id="Layer_1" xmlns="http://www.w3.org/2000/svg" xmlns:xlink="http://www.w3.org/1999/xlink" x="0px" y="0px"
	 width="150px" height="320px" viewBox="0 0 150 320" enable-background="new 0 0 150 320" xml:space="preserve">
<g>
	<g>
		<path fill="#FFFFFF" d="M89.675,65.892c0-2.384-0.827-4.713-2.343-6.545l0,0c-1.378-1.681-3.376-2.852-5.636-3.321l-0.482-0.096
			l-0.4,0.276c-0.785,0.551-3.872,4.354-5.829,6.807c-1.957-2.453-5.043-6.256-5.829-6.807l-0.4-0.276l-0.482,0.096
			c-2.26,0.469-4.258,1.64-5.636,3.321c-1.502,1.833-2.343,4.161-2.343,6.545v6.848h29.35v-6.848H89.675z M87.415,70.48h-24.83
			v-4.589c0-1.86,0.648-3.679,1.819-5.112c0.937-1.144,2.274-1.984,3.789-2.411c1.006,1.061,3.624,4.258,5.925,7.165L75,66.65
			l0.882-1.116c2.301-2.921,4.919-6.118,5.911-7.165c1.53,0.427,2.852,1.268,3.789,2.411c1.171,1.433,1.819,3.252,1.819,5.112v4.589
			L87.415,70.48L87.415,70.48z"/>
		<path fill="#FFFFFF" d="M46.78,85.156c0,4.354,3.541,7.909,7.909,7.909s7.909-3.541,7.909-7.909c0-4.368-3.541-7.909-7.909-7.909
			c-2.535,0-4.781,1.199-6.228,3.059c-0.344-1.75-0.537-3.528-0.537-5.319c0-12.043,7.868-22.516,19.291-25.933
			c0.565,3.803,3.844,6.738,7.813,6.738c3.955,0,7.234-2.935,7.813-6.738c11.423,3.417,19.291,13.89,19.291,25.933
			c0,1.791-0.193,3.569-0.537,5.319c-1.447-1.86-3.693-3.059-6.228-3.059c-4.354,0-7.909,3.541-7.909,7.909
			c0,4.368,3.541,7.909,7.909,7.909s7.909-3.541,7.909-7.909c0-0.537-0.055-1.061-0.152-1.571c0.854-2.77,1.281-5.663,1.281-8.585
			c0-13.283-8.833-24.789-21.551-28.289C82.234,42.921,78.955,40,75,40s-7.234,2.921-7.799,6.724
			C54.469,50.211,45.65,61.717,45.65,75c0,2.921,0.441,5.815,1.281,8.585C46.835,84.094,46.78,84.618,46.78,85.156z M95.325,90.805
			c-3.114,0-5.65-2.535-5.65-5.65s2.535-5.65,5.65-5.65s5.65,2.535,5.65,5.65S98.439,90.805,95.325,90.805z M75,42.26
			c3.114,0,5.65,2.535,5.65,5.65c0,3.114-2.535,5.65-5.65,5.65s-5.65-2.535-5.65-5.65S71.886,42.26,75,42.26z M54.675,79.52
			c3.114,0,5.65,2.535,5.65,5.65s-2.535,5.65-5.65,5.65s-5.65-2.535-5.65-5.65C49.026,82.055,51.561,79.52,54.675,79.52z"/>
		<path fill="#FFFFFF" d="M107.657,96.606L107.657,96.606c-1.378-1.681-3.376-2.852-5.636-3.321l-0.482-0.096l-0.4,0.276
			c-0.785,0.551-3.872,4.354-5.829,6.807c-1.957-2.453-5.043-6.256-5.829-6.807l-0.4-0.276L88.6,93.285
			c-2.26,0.469-4.258,1.64-5.636,3.321c-1.144,1.392-1.902,3.087-2.191,4.864c-3.789,0.827-7.785,0.827-11.575,0
			c-0.289-1.778-1.047-3.459-2.191-4.864l0,0c-1.378-1.681-3.376-2.852-5.636-3.321l-0.482-0.096l-0.4,0.276
			c-0.785,0.551-3.872,4.354-5.829,6.807c-1.957-2.453-5.043-6.256-5.829-6.807l-0.4-0.276l-0.482,0.096
			c-2.26,0.469-4.258,1.64-5.636,3.321C40.827,98.439,40,100.768,40,103.152V110h29.35v-6.201c1.846,0.358,3.748,0.551,5.65,0.551
			s3.789-0.193,5.65-0.551V110H110v-6.848C110,100.768,109.173,98.439,107.657,96.606z M67.091,107.74H42.26v-4.589
			c0-1.86,0.648-3.679,1.819-5.112c0.937-1.144,2.274-1.984,3.789-2.411c1.006,1.061,3.624,4.258,5.925,7.165l0.882,1.116
			l0.882-1.116c2.301-2.921,4.919-6.118,5.911-7.165c1.53,0.427,2.852,1.268,3.789,2.411c1.171,1.433,1.819,3.252,1.819,5.112v4.589
			H67.091z M107.74,107.74H82.909v-4.589c0-1.86,0.648-3.679,1.819-5.112c0.937-1.144,2.274-1.984,3.789-2.411
			c1.006,1.061,3.624,4.258,5.925,7.165l0.882,1.116l0.882-1.116c2.301-2.921,4.919-6.118,5.911-7.165
			c1.53,0.427,2.852,1.268,3.789,2.411c1.171,1.433,1.819,3.252,1.819,5.112v4.589H107.74z"/>
		<rect x="73.87" y="77.26" fill="#FFFFFF" width="2.26" height="2.26"/>
		<rect x="78.39" y="77.26" fill="#FFFFFF" width="2.26" height="2.26"/>
		<rect x="69.35" y="77.26" fill="#FFFFFF" width="2.26" height="2.26"/>
	</g>
	<path fill="#FFFFFF" d="M75,1c40.804,0,74,33.196,74,74s-33.196,74-74,74S1,115.804,1,75S34.196,1,75,1 M75,0
		C33.579,0,0,33.579,0,75s33.579,75,75,75s75-33.579,75-75S116.421,0,75,0L75,0z"/>
</g>
<g>
	<g>
		<circle fill="#FFFFFF" cx="75" cy="245" r="75"/>
	</g>
	<g>
		<path fill="#1C3664" d="M89.675,235.892c0-2.384-0.827-4.713-2.343-6.545l0,0c-1.378-1.681-3.376-2.852-5.636-3.321l-0.482-0.096
			l-0.4,0.276c-0.785,0.551-3.872,4.354-5.829,6.807c-1.957-2.453-5.043-6.256-5.829-6.807l-0.4-0.276l-0.482,0.096
			c-2.26,0.469-4.258,1.64-5.636,3.321c-1.502,1.833-2.343,4.161-2.343,6.545v6.848h29.35v-6.848H89.675z M87.415,240.48h-24.83
			v-4.589c0-1.86,0.648-3.679,1.819-5.112c0.937-1.144,2.274-1.984,3.789-2.411c1.006,1.061,3.624,4.258,5.925,7.165L75,236.65
			l0.882-1.116c2.301-2.921,4.919-6.118,5.911-7.165c1.53,0.427,2.852,1.268,3.789,2.411c1.171,1.433,1.819,3.252,1.819,5.112v4.589
			h0.014V240.48z"/>
		<path fill="#1C3664" d="M46.78,255.156c0,4.354,3.541,7.909,7.909,7.909s7.909-3.541,7.909-7.909c0-4.368-3.541-7.909-7.909-7.909
			c-2.535,0-4.781,1.199-6.228,3.059c-0.344-1.75-0.537-3.528-0.537-5.319c0-12.043,7.868-22.516,19.291-25.933
			c0.565,3.803,3.844,6.738,7.813,6.738c3.955,0,7.234-2.935,7.813-6.738c11.423,3.417,19.291,13.89,19.291,25.933
			c0,1.791-0.193,3.569-0.537,5.319c-1.447-1.86-3.693-3.059-6.228-3.059c-4.354,0-7.909,3.541-7.909,7.909
			c0,4.368,3.541,7.909,7.909,7.909s7.909-3.541,7.909-7.909c0-0.537-0.055-1.061-0.152-1.571c0.854-2.77,1.281-5.663,1.281-8.585
			c0-13.283-8.833-24.789-21.551-28.289C82.234,212.921,78.955,210,75,210s-7.234,2.921-7.799,6.724
			C54.469,220.211,45.65,231.717,45.65,245c0,2.921,0.441,5.815,1.281,8.585C46.835,254.094,46.78,254.618,46.78,255.156z
			 M95.325,260.805c-3.114,0-5.65-2.535-5.65-5.65c0-3.114,2.535-5.65,5.65-5.65s5.65,2.535,5.65,5.65
			C100.974,258.27,98.439,260.805,95.325,260.805z M75,212.26c3.114,0,5.65,2.535,5.65,5.65c0,3.114-2.535,5.65-5.65,5.65
			s-5.65-2.535-5.65-5.65S71.886,212.26,75,212.26z M54.675,249.52c3.114,0,5.65,2.535,5.65,5.65c0,3.115-2.535,5.65-5.65,5.65
			s-5.65-2.535-5.65-5.65S51.561,249.52,54.675,249.52z"/>
		<path fill="#1C3664" d="M107.657,266.606L107.657,266.606c-1.378-1.681-3.376-2.852-5.636-3.321l-0.482-0.096l-0.4,0.276
			c-0.785,0.551-3.872,4.354-5.829,6.807c-1.957-2.453-5.043-6.256-5.829-6.807l-0.4-0.276l-0.482,0.096
			c-2.26,0.469-4.258,1.64-5.636,3.321c-1.144,1.392-1.902,3.087-2.191,4.864c-3.789,0.827-7.785,0.827-11.575,0
			c-0.289-1.778-1.047-3.459-2.191-4.864l0,0c-1.378-1.681-3.376-2.852-5.636-3.321l-0.482-0.096l-0.4,0.276
			c-0.785,0.551-3.872,4.354-5.829,6.807c-1.957-2.453-5.043-6.256-5.829-6.807l-0.4-0.276l-0.482,0.096
			c-2.26,0.469-4.258,1.64-5.636,3.321c-1.488,1.833-2.315,4.161-2.315,6.545V280h29.35v-6.201c1.846,0.358,3.748,0.551,5.65,0.551
			s3.789-0.193,5.65-0.551V280H110v-6.848C110,270.768,109.173,268.439,107.657,266.606z M67.091,277.74H42.26v-4.589
			c0-1.86,0.648-3.679,1.819-5.112c0.937-1.144,2.274-1.984,3.789-2.411c1.006,1.061,3.624,4.258,5.925,7.165l0.882,1.116
			l0.882-1.116c2.301-2.921,4.919-6.118,5.911-7.165c1.53,0.427,2.852,1.268,3.789,2.411c1.171,1.433,1.819,3.252,1.819,5.112v4.589
			H67.091z M107.74,277.74H82.909v-4.589c0-1.86,0.648-3.679,1.819-5.112c0.937-1.144,2.274-1.984,3.789-2.411
			c1.006,1.061,3.624,4.258,5.925,7.165l0.882,1.116l0.882-1.116c2.301-2.921,4.919-6.118,5.911-7.165
			c1.53,0.427,2.852,1.268,3.789,2.411c1.171,1.433,1.819,3.252,1.819,5.112v4.589H107.74z"/>
		<rect x="73.87" y="247.26" fill="#1C3664" width="2.26" height="2.26"/>
		<rect x="78.39" y="247.26" fill="#1C3664" width="2.26" height="2.26"/>
		<rect x="69.35" y="247.26" fill="#1C3664" width="2.26" height="2.26"/>
	</g>
</g>
</svg>
