<?xml version="1.0" encoding="utf-8"?>
<!-- Generator: Adobe Illustrator 17.0.0, SVG Export Plug-In . SVG Version: 6.00 Build 0)  -->
<!DOCTYPE svg PUBLIC "-//W3C//DTD SVG 1.1//EN" "http://www.w3.org/Graphics/SVG/1.1/DTD/svg11.dtd">
<svg version="1.1" id="Layer_1" xmlns="http://www.w3.org/2000/svg" xmlns:xlink="http://www.w3.org/1999/xlink" x="0px" y="0px"
	 width="44.433px" height="35px" viewBox="0 0 44.433 35" enable-background="new 0 0 44.433 35" xml:space="preserve">
<g>
	<path fill="#FFFFFF" d="M23.833,6.688c-0.043-0.079-0.076-0.177-0.076-0.22c0-0.159-0.077-0.29-0.232-0.386
		c-0.086-0.056-0.168-0.1-0.181-0.1s-0.208-0.071-0.43-0.16c-0.222-0.088-0.447-0.169-0.497-0.179
		c-0.05-0.011-0.147-0.094-0.216-0.183c-0.069-0.091-0.155-0.174-0.19-0.184c-0.187-0.063-0.231-0.35-0.1-0.638
		c0.039-0.087,0.071-0.188,0.072-0.224c0-0.035,0.048-0.125,0.106-0.198c0.154-0.195,0.246-0.618,0.148-0.677
		c-0.021-0.013-0.036-0.183-0.036-0.392c0-0.279-0.016-0.399-0.063-0.492c-0.095-0.188-0.292-0.327-0.51-0.361
		c-0.111-0.018-0.223-0.062-0.271-0.108c-0.064-0.059-0.127-0.077-0.279-0.076c-0.389,0-0.806,0.226-1.023,0.551
		c-0.153,0.232-0.2,0.482-0.193,1.03c0.005,0.284,0.017,0.347,0.086,0.442c0.045,0.059,0.082,0.126,0.082,0.146
		c0,0.02,0.03,0.066,0.069,0.101c0.038,0.035,0.081,0.138,0.095,0.228c0.015,0.09,0.049,0.194,0.076,0.236
		c0.028,0.037,0.05,0.13,0.05,0.202c0,0.117-0.014,0.139-0.112,0.174c-0.061,0.021-0.172,0.103-0.245,0.181
		C19.81,5.566,19.5,5.68,18.799,5.823c-0.228,0.049-0.433,0.107-0.456,0.133c-0.054,0.058-0.144,0.347-0.194,0.618
		c-0.021,0.115-0.047,0.222-0.057,0.24c-0.029,0.048-0.2,0.93-0.2,1.035v0.09h3.082h3.082l-0.02-0.153
		C23.944,7.06,23.899,6.816,23.833,6.688z"/>
	<path fill="#FFFFFF" d="M17.852,28.239c-0.064-0.125-0.117-0.278-0.117-0.347c0-0.248-0.123-0.453-0.364-0.605
		c-0.135-0.086-0.263-0.156-0.283-0.156s-0.325-0.112-0.673-0.25c-0.349-0.138-0.698-0.264-0.777-0.282
		c-0.079-0.017-0.23-0.146-0.34-0.287c-0.108-0.14-0.243-0.27-0.298-0.288c-0.292-0.099-0.362-0.547-0.157-0.998
		c0.061-0.137,0.112-0.294,0.113-0.349c0-0.058,0.075-0.198,0.167-0.313c0.242-0.304,0.385-0.964,0.232-1.058
		c-0.031-0.021-0.056-0.289-0.056-0.612c0-0.438-0.024-0.624-0.1-0.771c-0.149-0.294-0.456-0.51-0.799-0.565
		c-0.173-0.027-0.35-0.097-0.426-0.168c-0.1-0.093-0.199-0.121-0.437-0.119c-0.608,0-1.262,0.353-1.601,0.863
		c-0.24,0.362-0.313,0.752-0.302,1.609c0.007,0.444,0.027,0.545,0.135,0.693c0.07,0.095,0.128,0.197,0.128,0.228
		c0,0.031,0.049,0.103,0.108,0.159s0.125,0.216,0.149,0.356c0.022,0.141,0.077,0.306,0.119,0.368
		c0.044,0.06,0.078,0.204,0.078,0.319c0,0.183-0.022,0.216-0.176,0.271c-0.097,0.034-0.269,0.16-0.382,0.284
		c-0.239,0.257-0.722,0.436-1.82,0.662c-0.357,0.074-0.678,0.167-0.714,0.207c-0.083,0.092-0.226,0.545-0.302,0.966
		c-0.032,0.181-0.073,0.35-0.09,0.376c-0.045,0.074-0.313,1.456-0.313,1.617v0.141h4.822H18.2l-0.031-0.241
		C18.025,28.818,17.956,28.437,17.852,28.239z"/>
	<path fill="#FFFFFF" d="M12.156,16.067c0.445-0.028,0.785-0.412,0.756-0.862c-0.028-0.446-0.413-0.785-0.862-0.757
		c-3.727,0.243-7.278,2.465-9.123,5.707c-0.22,0.391-0.085,0.884,0.304,1.11c0.268,0.148,0.587,0.134,0.832-0.018
		c0.11-0.069,0.206-0.166,0.275-0.288C5.913,18.178,8.959,16.275,12.156,16.067z"/>
	<path fill="#FFFFFF" d="M11.95,12.828c0.444-0.03,0.788-0.411,0.757-0.861c-0.028-0.448-0.412-0.786-0.86-0.758
		c-4.795,0.307-9.364,3.166-11.741,7.337c-0.222,0.389-0.085,0.887,0.304,1.108c0.268,0.153,0.587,0.137,0.83-0.017
		c0.112-0.068,0.208-0.166,0.277-0.285C3.627,15.641,7.688,13.099,11.95,12.828z"/>
	<path fill="#FFFFFF" d="M40.321,15.242c-0.064-0.124-0.117-0.278-0.117-0.346c0-0.249-0.123-0.454-0.363-0.606
		c-0.136-0.086-0.263-0.157-0.284-0.157s-0.323-0.111-0.673-0.249c-0.348-0.138-0.697-0.264-0.776-0.283
		c-0.078-0.016-0.231-0.146-0.339-0.287c-0.109-0.14-0.243-0.269-0.298-0.288c-0.293-0.098-0.361-0.547-0.157-0.998
		c0.061-0.135,0.112-0.294,0.113-0.35c0-0.057,0.075-0.197,0.166-0.312c0.241-0.305,0.386-0.964,0.232-1.059
		c-0.032-0.021-0.056-0.289-0.056-0.614c0-0.438-0.025-0.623-0.1-0.771c-0.148-0.294-0.457-0.51-0.799-0.566
		c-0.173-0.026-0.349-0.097-0.425-0.167c-0.099-0.094-0.199-0.122-0.437-0.121c-0.609,0.001-1.262,0.354-1.6,0.864
		c-0.239,0.362-0.313,0.753-0.301,1.608c0.007,0.444,0.027,0.545,0.136,0.693c0.07,0.095,0.127,0.198,0.127,0.229
		s0.049,0.102,0.107,0.158c0.059,0.056,0.126,0.216,0.148,0.357c0.022,0.14,0.076,0.305,0.119,0.367
		c0.043,0.06,0.078,0.205,0.078,0.319c0,0.183-0.023,0.216-0.175,0.271c-0.097,0.034-0.269,0.16-0.383,0.284
		c-0.239,0.257-0.722,0.436-1.82,0.664c-0.357,0.074-0.679,0.166-0.714,0.206c-0.084,0.092-0.226,0.545-0.303,0.967
		c-0.032,0.181-0.072,0.349-0.09,0.376c-0.045,0.074-0.312,1.456-0.312,1.617v0.141h4.822h4.821l-0.03-0.241
		C40.494,15.82,40.426,15.439,40.321,15.242z"/>
	<path fill="#FFFFFF" d="M35.818,4.774c-3.302,0-6.172,1.869-7.618,4.604l-2.324-1.42c0.37-0.74,0.583-1.57,0.583-2.451
		C26.46,2.469,23.991,0,20.954,0c-3.036,0-5.507,2.469-5.507,5.506s2.471,5.507,5.507,5.507c1.91,0,3.595-0.979,4.583-2.46
		l2.366,1.445c-0.448,1.042-0.698,2.188-0.698,3.391c0,1.451,0.364,2.817,1,4.018l-6.939,5.585c-1.32-3.067-4.37-5.22-7.916-5.22
		c-4.75,0-8.615,3.863-8.615,8.614c0,4.75,3.865,8.615,8.615,8.615s8.615-3.865,8.615-8.615c0-0.689-0.09-1.358-0.244-2.002
		l7.229-5.819c1.574,2.083,4.063,3.438,6.87,3.438c4.75,0,8.615-3.864,8.615-8.615C44.433,8.639,40.568,4.774,35.818,4.774z
		 M20.954,10.135c-2.554,0-4.632-2.076-4.632-4.63c0-2.553,2.078-4.631,4.632-4.631c2.554,0,4.632,2.077,4.632,4.631
		C25.586,8.059,23.508,10.135,20.954,10.135z M13.349,33.631c-3.995,0-7.246-3.25-7.246-7.245s3.25-7.245,7.246-7.245
		s7.246,3.25,7.246,7.245S17.344,33.631,13.349,33.631z M35.818,20.634c-3.996,0-7.245-3.25-7.245-7.246
		c0-3.994,3.25-7.245,7.245-7.245s7.246,3.25,7.246,7.245C43.064,17.384,39.814,20.634,35.818,20.634z"/>
</g>
</svg>
