<?xml version="1.0" encoding="utf-8"?>
<!-- Generator: Adobe Illustrator 17.0.0, SVG Export Plug-In . SVG Version: 6.00 Build 0)  -->
<!DOCTYPE svg PUBLIC "-//W3C//DTD SVG 1.1//EN" "http://www.w3.org/Graphics/SVG/1.1/DTD/svg11.dtd">
<svg version="1.1" id="Layer_1" xmlns="http://www.w3.org/2000/svg" xmlns:xlink="http://www.w3.org/1999/xlink" x="0px" y="0px"
	 width="150px" height="320px" viewBox="0 0 150 320" enable-background="new 0 0 150 320" xml:space="preserve">
<g>
	<g>
		<path fill="#FFFFFF" d="M78.234,53.377c-0.086-0.157-0.151-0.354-0.151-0.44c0-0.318-0.155-0.58-0.465-0.773
			c-0.173-0.111-0.337-0.2-0.362-0.2s-0.415-0.142-0.859-0.319c-0.445-0.176-0.894-0.337-0.994-0.358
			c-0.1-0.022-0.294-0.187-0.432-0.366c-0.139-0.182-0.311-0.348-0.381-0.369c-0.373-0.127-0.462-0.699-0.2-1.275
			c0.078-0.174,0.143-0.375,0.144-0.448c0-0.07,0.096-0.25,0.212-0.397c0.308-0.391,0.493-1.235,0.296-1.355
			c-0.041-0.026-0.072-0.366-0.072-0.783c0-0.558-0.032-0.798-0.127-0.984c-0.19-0.377-0.584-0.654-1.02-0.723
			c-0.221-0.036-0.447-0.123-0.543-0.215c-0.128-0.119-0.254-0.154-0.559-0.152c-0.777,0-1.612,0.451-2.046,1.102
			c-0.307,0.463-0.4,0.964-0.386,2.059c0.009,0.568,0.034,0.695,0.173,0.885c0.09,0.119,0.163,0.253,0.163,0.291
			c0,0.039,0.061,0.131,0.137,0.202c0.076,0.07,0.161,0.275,0.19,0.455c0.03,0.18,0.099,0.389,0.153,0.472
			c0.055,0.074,0.1,0.26,0.1,0.405c0,0.233-0.029,0.278-0.225,0.349c-0.122,0.042-0.344,0.205-0.49,0.361
			c-0.303,0.331-0.922,0.559-2.324,0.846c-0.456,0.098-0.867,0.213-0.912,0.266c-0.108,0.116-0.288,0.695-0.387,1.237
			c-0.041,0.231-0.094,0.444-0.115,0.48c-0.058,0.096-0.4,1.859-0.4,2.069v0.18h6.163h6.163l-0.039-0.307
			C78.455,54.12,78.365,53.631,78.234,53.377z"/>
		<path fill="#FFFFFF" d="M66.271,96.478c-0.129-0.249-0.234-0.556-0.234-0.693c0-0.495-0.245-0.906-0.728-1.211
			c-0.27-0.173-0.525-0.312-0.566-0.312c-0.041,0-0.649-0.224-1.345-0.499c-0.698-0.276-1.397-0.527-1.553-0.564
			c-0.157-0.034-0.461-0.292-0.679-0.574c-0.216-0.28-0.486-0.54-0.595-0.576c-0.584-0.199-0.724-1.094-0.314-1.996
			c0.122-0.273,0.224-0.588,0.226-0.699c0-0.116,0.15-0.396,0.333-0.626c0.483-0.608,0.771-1.927,0.463-2.117
			c-0.063-0.041-0.113-0.578-0.113-1.225c0-0.875-0.048-1.248-0.199-1.542c-0.298-0.588-0.912-1.02-1.597-1.13
			c-0.346-0.054-0.699-0.194-0.851-0.336c-0.199-0.187-0.398-0.243-0.873-0.239c-1.217,0-2.524,0.706-3.201,1.726
			c-0.479,0.725-0.625,1.505-0.603,3.217c0.014,0.889,0.053,1.09,0.27,1.386c0.141,0.189,0.255,0.394,0.255,0.456
			c0,0.062,0.097,0.205,0.215,0.317c0.118,0.112,0.251,0.432,0.297,0.712c0.045,0.282,0.154,0.611,0.239,0.735
			c0.087,0.119,0.156,0.409,0.156,0.638c0,0.366-0.045,0.433-0.351,0.542c-0.194,0.067-0.538,0.321-0.765,0.568
			c-0.477,0.515-1.444,0.871-3.64,1.325c-0.713,0.147-1.357,0.335-1.427,0.413c-0.167,0.184-0.451,1.09-0.605,1.933
			c-0.064,0.362-0.145,0.701-0.179,0.753c-0.09,0.147-0.626,2.911-0.626,3.234v0.283h9.644h9.643l-0.062-0.481
			C66.618,97.636,66.479,96.873,66.271,96.478z"/>
		<path fill="#FFFFFF" d="M54.879,72.133c0.89-0.056,1.57-0.824,1.512-1.725c-0.055-0.893-0.827-1.571-1.725-1.513
			c-7.455,0.486-14.556,4.93-18.247,11.413c-0.44,0.783-0.17,1.769,0.608,2.22c0.536,0.297,1.173,0.268,1.664-0.036
			c0.22-0.137,0.413-0.331,0.551-0.576C42.394,76.356,48.485,72.55,54.879,72.133z"/>
		<path fill="#FFFFFF" d="M54.468,65.657c0.888-0.06,1.575-0.823,1.513-1.722c-0.055-0.895-0.823-1.573-1.72-1.517
			c-9.589,0.614-18.728,6.331-23.481,14.674c-0.443,0.779-0.171,1.773,0.607,2.216c0.536,0.305,1.173,0.273,1.66-0.034
			c0.225-0.136,0.417-0.332,0.554-0.571C37.821,71.282,45.943,66.199,54.468,65.657z"/>
		<path fill="#FFFFFF" d="M111.209,70.483c-0.129-0.247-0.233-0.557-0.233-0.691c0-0.497-0.245-0.908-0.727-1.212
			c-0.271-0.172-0.526-0.313-0.568-0.313s-0.646-0.223-1.345-0.497c-0.697-0.276-1.395-0.527-1.552-0.565
			c-0.157-0.033-0.462-0.291-0.678-0.575c-0.217-0.28-0.486-0.538-0.596-0.576c-0.586-0.197-0.723-1.094-0.314-1.996
			c0.121-0.271,0.225-0.588,0.226-0.699c0-0.114,0.149-0.394,0.332-0.624c0.482-0.609,0.772-1.928,0.464-2.117
			c-0.063-0.043-0.112-0.578-0.112-1.227c0-0.875-0.049-1.246-0.2-1.542c-0.297-0.588-0.913-1.021-1.597-1.131
			c-0.345-0.052-0.699-0.194-0.85-0.335c-0.199-0.188-0.397-0.244-0.873-0.241c-1.217,0.002-2.524,0.709-3.201,1.727
			c-0.478,0.724-0.625,1.507-0.603,3.217c0.013,0.889,0.054,1.091,0.271,1.386c0.14,0.19,0.254,0.395,0.254,0.457
			s0.098,0.204,0.215,0.316c0.118,0.112,0.253,0.432,0.297,0.714c0.045,0.28,0.153,0.609,0.239,0.734
			c0.086,0.119,0.157,0.41,0.157,0.638c0,0.366-0.047,0.433-0.351,0.542c-0.195,0.067-0.538,0.321-0.766,0.568
			c-0.478,0.515-1.445,0.871-3.64,1.327c-0.714,0.147-1.357,0.332-1.427,0.411c-0.169,0.184-0.452,1.09-0.605,1.935
			c-0.063,0.362-0.145,0.699-0.18,0.753c-0.09,0.147-0.624,2.911-0.624,3.234v0.283h9.644h9.643l-0.061-0.482
			C111.556,71.641,111.419,70.879,111.209,70.483z"/>
		<path fill="#FFFFFF" d="M102.204,49.547c-6.604,0-12.343,3.738-15.235,9.207l-4.648-2.84c0.74-1.479,1.166-3.141,1.166-4.903
			C83.488,44.939,78.549,40,72.476,40c-6.072,0-11.013,4.939-11.013,11.011s4.941,11.014,11.013,11.014
			c3.82,0,7.189-1.958,9.165-4.92l4.731,2.89c-0.896,2.083-1.396,4.376-1.396,6.783c0,2.902,0.728,5.634,1.999,8.035l-13.879,11.17
			c-2.64-6.134-8.74-10.44-15.831-10.44c-9.5,0-17.23,7.726-17.23,17.228c0,9.5,7.73,17.229,17.23,17.229s17.23-7.729,17.23-17.229
			c0-1.379-0.181-2.716-0.489-4.004L88.465,77.13c3.148,4.167,8.126,6.876,13.739,6.876c9.5,0,17.229-7.728,17.229-17.23
			C119.433,57.277,111.704,49.547,102.204,49.547z M72.476,60.27c-5.107,0-9.263-4.153-9.263-9.261c0-5.106,4.156-9.261,9.263-9.261
			c5.108,0,9.263,4.155,9.263,9.261C81.739,56.117,77.584,60.27,72.476,60.27z M57.265,107.261c-7.99,0-14.491-6.499-14.491-14.49
			s6.5-14.49,14.491-14.49s14.492,6.499,14.492,14.49S65.255,107.261,57.265,107.261z M102.204,81.269
			c-7.991,0-14.49-6.5-14.49-14.492c0-7.989,6.499-14.49,14.49-14.49s14.492,6.501,14.492,14.49
			C116.696,74.768,110.195,81.269,102.204,81.269z"/>
	</g>
	<path fill="#FFFFFF" d="M75,1c40.804,0,74,33.196,74,74s-33.196,74-74,74S1,115.804,1,75S34.196,1,75,1 M75,0
		C33.579,0,0,33.579,0,75s33.579,75,75,75s75-33.579,75-75S116.421,0,75,0L75,0z"/>
</g>
<g>
	<g>
		<circle fill="#FFFFFF" cx="75" cy="245" r="75"/>
	</g>
	<g>
		<path fill="#1C3664" d="M78.234,223.377c-0.086-0.157-0.151-0.354-0.151-0.44c0-0.318-0.155-0.58-0.465-0.773
			c-0.173-0.111-0.337-0.2-0.362-0.2s-0.415-0.142-0.859-0.319c-0.445-0.176-0.894-0.337-0.994-0.358
			c-0.1-0.022-0.294-0.187-0.432-0.366c-0.139-0.182-0.311-0.348-0.381-0.369c-0.373-0.127-0.462-0.699-0.2-1.275
			c0.078-0.174,0.143-0.375,0.144-0.448c0-0.07,0.096-0.25,0.212-0.397c0.308-0.391,0.493-1.235,0.296-1.355
			c-0.041-0.026-0.072-0.366-0.072-0.783c0-0.558-0.032-0.798-0.127-0.984c-0.19-0.377-0.584-0.654-1.02-0.723
			c-0.221-0.036-0.447-0.123-0.543-0.215c-0.128-0.119-0.254-0.154-0.559-0.152c-0.777,0-1.612,0.451-2.046,1.102
			c-0.307,0.463-0.4,0.964-0.386,2.059c0.009,0.568,0.034,0.695,0.173,0.885c0.09,0.119,0.163,0.253,0.163,0.291
			c0,0.039,0.061,0.131,0.137,0.202c0.076,0.07,0.161,0.275,0.19,0.455c0.03,0.18,0.099,0.389,0.153,0.472
			c0.055,0.074,0.1,0.26,0.1,0.405c0,0.233-0.029,0.278-0.225,0.349c-0.122,0.042-0.344,0.205-0.49,0.361
			c-0.303,0.331-0.922,0.559-2.324,0.846c-0.456,0.098-0.867,0.213-0.912,0.266c-0.108,0.116-0.288,0.695-0.387,1.237
			c-0.041,0.231-0.094,0.444-0.115,0.48c-0.058,0.096-0.4,1.859-0.4,2.069v0.18h6.163h6.163l-0.039-0.307
			C78.455,224.12,78.365,223.631,78.234,223.377z"/>
		<path fill="#1C3664" d="M66.271,266.478c-0.129-0.249-0.234-0.556-0.234-0.693c0-0.495-0.245-0.906-0.728-1.211
			c-0.27-0.173-0.525-0.312-0.566-0.312c-0.041,0-0.649-0.224-1.345-0.499c-0.698-0.276-1.397-0.527-1.553-0.564
			c-0.157-0.034-0.461-0.292-0.679-0.574c-0.216-0.28-0.486-0.54-0.595-0.576c-0.584-0.199-0.724-1.094-0.314-1.996
			c0.122-0.273,0.224-0.587,0.226-0.699c0-0.116,0.15-0.396,0.333-0.626c0.483-0.608,0.771-1.927,0.463-2.117
			c-0.063-0.041-0.113-0.578-0.113-1.225c0-0.875-0.048-1.248-0.199-1.542c-0.298-0.588-0.912-1.02-1.597-1.13
			c-0.346-0.054-0.699-0.194-0.851-0.336c-0.199-0.187-0.398-0.243-0.873-0.239c-1.217,0-2.524,0.706-3.201,1.726
			c-0.479,0.725-0.625,1.505-0.603,3.217c0.014,0.889,0.053,1.09,0.27,1.386c0.141,0.189,0.255,0.394,0.255,0.456
			s0.097,0.205,0.215,0.317c0.118,0.112,0.251,0.432,0.297,0.712c0.045,0.282,0.154,0.611,0.239,0.735
			c0.087,0.119,0.156,0.409,0.156,0.638c0,0.366-0.045,0.433-0.351,0.542c-0.194,0.067-0.538,0.321-0.765,0.568
			c-0.477,0.515-1.444,0.871-3.64,1.325c-0.713,0.147-1.357,0.335-1.427,0.413c-0.167,0.184-0.451,1.09-0.605,1.933
			c-0.064,0.362-0.145,0.701-0.179,0.753c-0.09,0.147-0.626,2.911-0.626,3.234v0.283h9.644h9.643l-0.062-0.481
			C66.618,267.636,66.479,266.873,66.271,266.478z"/>
		<path fill="#1C3664" d="M54.879,242.133c0.89-0.056,1.57-0.824,1.512-1.725c-0.055-0.893-0.827-1.571-1.725-1.513
			c-7.455,0.486-14.556,4.93-18.247,11.413c-0.44,0.783-0.17,1.769,0.608,2.22c0.536,0.297,1.173,0.268,1.664-0.036
			c0.22-0.137,0.413-0.331,0.551-0.576C42.394,246.356,48.485,242.55,54.879,242.133z"/>
		<path fill="#1C3664" d="M54.468,235.657c0.888-0.06,1.575-0.824,1.513-1.722c-0.055-0.895-0.823-1.573-1.72-1.517
			c-9.589,0.614-18.728,6.331-23.481,14.674c-0.443,0.779-0.171,1.773,0.607,2.216c0.536,0.305,1.173,0.273,1.66-0.034
			c0.225-0.136,0.417-0.332,0.554-0.571C37.821,241.282,45.943,236.199,54.468,235.657z"/>
		<path fill="#1C3664" d="M111.209,240.483c-0.129-0.247-0.233-0.557-0.233-0.691c0-0.497-0.245-0.908-0.727-1.212
			c-0.271-0.172-0.526-0.313-0.568-0.313c-0.041,0-0.646-0.223-1.345-0.497c-0.697-0.276-1.395-0.527-1.552-0.565
			c-0.157-0.033-0.462-0.291-0.678-0.575c-0.217-0.28-0.486-0.538-0.596-0.576c-0.586-0.197-0.723-1.094-0.314-1.996
			c0.121-0.271,0.225-0.588,0.226-0.699c0-0.114,0.149-0.394,0.332-0.624c0.482-0.609,0.772-1.928,0.464-2.117
			c-0.063-0.043-0.112-0.578-0.112-1.227c0-0.875-0.049-1.246-0.2-1.542c-0.297-0.589-0.913-1.021-1.597-1.131
			c-0.345-0.052-0.699-0.194-0.85-0.335c-0.199-0.188-0.397-0.244-0.873-0.241c-1.217,0.002-2.524,0.709-3.201,1.727
			c-0.478,0.724-0.625,1.507-0.603,3.217c0.013,0.889,0.054,1.091,0.271,1.386c0.14,0.19,0.254,0.395,0.254,0.457
			s0.098,0.204,0.215,0.316c0.118,0.112,0.253,0.432,0.297,0.714c0.045,0.28,0.153,0.609,0.239,0.734
			c0.086,0.119,0.157,0.41,0.157,0.638c0,0.366-0.047,0.433-0.351,0.542c-0.195,0.067-0.538,0.321-0.766,0.568
			c-0.478,0.515-1.445,0.871-3.64,1.327c-0.714,0.147-1.357,0.332-1.427,0.411c-0.169,0.184-0.452,1.09-0.605,1.935
			c-0.063,0.362-0.145,0.699-0.18,0.753c-0.09,0.147-0.624,2.911-0.624,3.234v0.283h9.644h9.643l-0.061-0.482
			C111.556,241.641,111.419,240.879,111.209,240.483z"/>
		<path fill="#1C3664" d="M102.204,219.547c-6.604,0-12.343,3.738-15.235,9.207l-4.648-2.84c0.74-1.479,1.166-3.141,1.166-4.903
			c0-6.072-4.939-11.011-11.012-11.011c-6.072,0-11.013,4.939-11.013,11.011c0,6.072,4.941,11.013,11.013,11.013
			c3.82,0,7.189-1.958,9.165-4.92l4.731,2.89c-0.896,2.083-1.396,4.376-1.396,6.783c0,2.902,0.728,5.634,1.999,8.035l-13.879,11.17
			c-2.64-6.134-8.74-10.44-15.831-10.44c-9.5,0-17.23,7.726-17.23,17.228c0,9.5,7.73,17.229,17.23,17.229s17.23-7.729,17.23-17.229
			c0-1.379-0.181-2.716-0.489-4.004l14.459-11.637c3.148,4.167,8.126,6.876,13.739,6.876c9.5,0,17.229-7.728,17.229-17.23
			C119.433,227.277,111.704,219.547,102.204,219.547z M72.476,230.27c-5.107,0-9.263-4.153-9.263-9.261
			c0-5.106,4.156-9.261,9.263-9.261c5.108,0,9.263,4.155,9.263,9.261C81.739,226.117,77.584,230.27,72.476,230.27z M57.265,277.261
			c-7.99,0-14.491-6.499-14.491-14.49s6.5-14.49,14.491-14.49s14.492,6.499,14.492,14.49
			C71.758,270.762,65.255,277.261,57.265,277.261z M102.204,251.269c-7.991,0-14.49-6.5-14.49-14.492
			c0-7.989,6.499-14.49,14.49-14.49s14.492,6.501,14.492,14.49C116.696,244.768,110.195,251.269,102.204,251.269z"/>
	</g>
</g>
</svg>
