<?xml version="1.0" encoding="utf-8"?>
<!-- Generator: Adobe Illustrator 17.0.0, SVG Export Plug-In . SVG Version: 6.00 Build 0)  -->
<!DOCTYPE svg PUBLIC "-//W3C//DTD SVG 1.1//EN" "http://www.w3.org/Graphics/SVG/1.1/DTD/svg11.dtd">
<svg version="1.1" id="Layer_1" xmlns="http://www.w3.org/2000/svg" xmlns:xlink="http://www.w3.org/1999/xlink" x="0px" y="0px"
	 width="36px" height="35px" viewBox="0 0 36 35" enable-background="new 0 0 36 35" xml:space="preserve">
<path fill="#FFFFFF" d="M25.794,15.686c2.664,0,5.086,1.079,6.827,2.83c1.75,1.75,2.83,4.162,2.83,6.827s-1.079,5.086-2.83,6.827
	c-1.75,1.75-4.162,2.83-6.827,2.83s-5.086-1.079-6.827-2.83c-1.75-1.75-2.83-4.162-2.83-6.827s1.079-5.086,2.83-6.827
	C20.718,16.766,23.13,15.686,25.794,15.686z M31.522,0.943v2.499h0.68c0.262,0,0.476,0.214,0.476,0.476v2.178
	c0,0.262-0.214,0.476-0.476,0.476h-2.178c-0.262,0-0.476-0.214-0.476-0.476V3.919c0-0.262,0.214-0.476,0.476-0.476h0.554V0.943
	h-7.741v2.499h0.651c0.262,0,0.476,0.214,0.476,0.476v2.178c0,0.262-0.214,0.476-0.476,0.476h-2.178
	c-0.262,0-0.476-0.214-0.476-0.476V3.919c0-0.262,0.214-0.476,0.476-0.476h0.583V0.943h-7.74v2.499h0.612
	c0.262,0,0.476,0.214,0.476,0.476v2.178c0,0.262-0.214,0.476-0.476,0.476h-2.178c-0.262,0-0.476-0.214-0.476-0.476V3.919
	c0-0.262,0.214-0.476,0.476-0.476H13.2V0.943H5.459v2.499h0.583c0.262,0,0.476,0.214,0.476,0.476v2.178
	c0,0.262-0.214,0.476-0.476,0.476H3.865c-0.262,0-0.476-0.214-0.476-0.476V3.919c0-0.262,0.214-0.476,0.476-0.476h0.651V0.943H3.213
	c-0.593,0-1.138,0.243-1.536,0.622l-0.02,0.02C1.259,1.984,1.006,2.538,1.006,3.151v25.265c0,0.603,0.253,1.157,0.651,1.556
	s0.953,0.651,1.556,0.651h11.971c0.262,0,0.476,0.214,0.476,0.476s-0.214,0.476-0.476,0.476H3.213c-0.865,0-1.653-0.36-2.227-0.924
	c-0.574-0.574-0.924-1.361-0.924-2.227V3.16c0-0.865,0.36-1.663,0.924-2.227c0.01-0.01,0.02-0.02,0.029-0.029
	C1.589,0.35,2.367,0,3.213,0h29.573c0.865,0,1.653,0.36,2.227,0.924l0,0l0,0c0.574,0.574,0.924,1.361,0.924,2.227v15.005
	c0,0.262-0.214,0.476-0.476,0.476s-0.476-0.214-0.476-0.476V3.151c0-0.603-0.253-1.157-0.651-1.556l0,0
	c-0.398-0.398-0.953-0.651-1.565-0.651h-1.264C31.504,0.943,31.522,0.943,31.522,0.943z M31.726,4.386h-1.235v1.235h1.235V4.386z
	 M23.003,4.386h-1.235v1.235h1.235V4.386z M14.28,4.386h-1.235v1.235h1.235V4.386z M5.557,4.386H4.322v1.235h1.235V4.386z
	 M30.637,21.92c0.185-0.185,0.486-0.185,0.671,0c0.185,0.185,0.185,0.486,0,0.671l-5.825,5.825l0,0
	c-0.321,0.321-0.749,0.486-1.176,0.486c-0.428,0-0.856-0.165-1.176-0.486l0,0l0,0l0,0l-2.859-2.859
	c-0.185-0.185-0.185-0.486,0-0.671c0.185-0.185,0.486-0.185,0.671,0l2.859,2.859l0,0l0,0c0.136,0.136,0.33,0.214,0.515,0.214
	c0.185,0,0.369-0.068,0.515-0.214l0,0l5.825-5.825H30.637z M31.94,19.177c-1.575-1.575-3.754-2.548-6.156-2.548
	c-2.402,0-4.58,0.972-6.156,2.548c-1.575,1.575-2.548,3.754-2.548,6.156s0.972,4.58,2.548,6.156
	c1.575,1.575,3.754,2.548,6.156,2.548c2.402,0,4.58-0.972,6.156-2.548c1.575-1.575,2.548-3.754,2.548-6.156
	C34.488,22.931,33.516,20.753,31.94,19.177z"/>
</svg>
