<?xml version="1.0" encoding="utf-8"?>
<!-- Generator: Adobe Illustrator 17.0.0, SVG Export Plug-In . SVG Version: 6.00 Build 0)  -->
<!DOCTYPE svg PUBLIC "-//W3C//DTD SVG 1.1//EN" "http://www.w3.org/Graphics/SVG/1.1/DTD/svg11.dtd">
<svg version="1.1" id="Layer_1" xmlns="http://www.w3.org/2000/svg" xmlns:xlink="http://www.w3.org/1999/xlink" x="0px" y="0px"
	 width="150px" height="320px" viewBox="0 0 150 320" enable-background="new 0 0 150 320" xml:space="preserve">
<g>
	<g>
		<circle fill="#FFFFFF" cx="75" cy="245" r="75"/>
	</g>
	<path fill="#1C3664" d="M90.589,241.373c5.329,0,10.172,2.159,13.654,5.66c3.501,3.501,5.66,8.325,5.66,13.654
		c0,5.329-2.159,10.172-5.66,13.654c-3.501,3.501-8.325,5.66-13.654,5.66c-5.329,0-10.172-2.159-13.654-5.66
		c-3.501-3.501-5.66-8.325-5.66-13.654c0-5.329,2.159-10.172,5.66-13.654C80.436,243.532,85.26,241.373,90.589,241.373z
		 M102.045,211.887v4.999h1.361c0.525,0,0.953,0.428,0.953,0.953v4.357c0,0.525-0.428,0.953-0.953,0.953H99.05
		c-0.525,0-0.953-0.428-0.953-0.953v-4.357c0-0.525,0.428-0.953,0.953-0.953h1.109v-4.999H84.676v4.999h1.303
		c0.525,0,0.953,0.428,0.953,0.953v4.357c0,0.525-0.428,0.953-0.953,0.953h-4.357c-0.525,0-0.953-0.428-0.953-0.953v-4.357
		c0-0.525,0.428-0.953,0.953-0.953h1.167v-4.999H67.308v4.999h1.225c0.525,0,0.953,0.428,0.953,0.953v4.357
		c0,0.525-0.428,0.953-0.953,0.953h-4.357c-0.525,0-0.953-0.428-0.953-0.953v-4.357c0-0.525,0.428-0.953,0.953-0.953h1.225v-4.999
		H49.919v4.999h1.167c0.525,0,0.953,0.428,0.953,0.953v4.357c0,0.525-0.428,0.953-0.953,0.953H46.73
		c-0.525,0-0.953-0.428-0.953-0.953v-4.357c0-0.525,0.428-0.953,0.953-0.953h1.303v-4.999h-2.606c-1.186,0-2.276,0.486-3.073,1.245
		l-0.039,0.039c-0.797,0.797-1.303,1.906-1.303,3.131v50.531c0,1.206,0.506,2.315,1.303,3.112s1.906,1.303,3.112,1.303h23.943
		c0.525,0,0.953,0.428,0.953,0.953s-0.428,0.953-0.953,0.953H45.427c-1.731,0-3.306-0.72-4.454-1.848
		c-1.148-1.148-1.848-2.723-1.848-4.454v-50.531c0-1.731,0.72-3.326,1.848-4.454c0.019-0.019,0.039-0.039,0.058-0.058
		C42.178,210.7,43.734,210,45.427,210h59.147c1.731,0,3.306,0.72,4.454,1.848l0,0l0,0c1.148,1.148,1.848,2.723,1.848,4.454v30.011
		c0,0.525-0.428,0.953-0.953,0.953s-0.953-0.428-0.953-0.953v-30.011c0-1.206-0.506-2.315-1.303-3.112l0,0
		c-0.797-0.797-1.906-1.303-3.131-1.303h-2.528H102.045z M102.453,218.772h-2.47v2.47h2.47V218.772z M85.007,218.772h-2.47v2.47
		h2.47V218.772z M67.56,218.772h-2.47v2.47h2.47V218.772z M50.114,218.772h-2.47v2.47h2.47V218.772z M100.275,253.84
		c0.37-0.37,0.972-0.37,1.342,0c0.37,0.37,0.37,0.973,0,1.342l-11.65,11.65l0,0c-0.642,0.642-1.498,0.972-2.353,0.972
		c-0.856,0-1.712-0.331-2.353-0.972l0,0l0,0l0,0l-5.718-5.718c-0.37-0.37-0.37-0.973,0-1.342c0.37-0.37,0.972-0.37,1.342,0
		l5.718,5.718l0,0l0,0c0.272,0.272,0.661,0.428,1.031,0.428s0.739-0.136,1.031-0.428l0,0l11.65-11.65H100.275z M102.881,248.355
		c-3.151-3.151-7.508-5.096-12.312-5.096s-9.161,1.945-12.312,5.096c-3.151,3.151-5.096,7.508-5.096,12.312
		c0,4.804,1.945,9.161,5.096,12.312c3.151,3.151,7.508,5.096,12.312,5.096s9.161-1.945,12.312-5.096
		c3.151-3.151,5.096-7.508,5.096-12.312C107.977,255.863,106.032,251.506,102.881,248.355z"/>
</g>
<g>
	<g>
		<path fill="#FFFFFF" d="M-625.837,65.892c0-2.384-0.827-4.713-2.343-6.545l0,0c-1.378-1.681-3.376-2.852-5.636-3.321l-0.482-0.096
			l-0.4,0.276c-0.785,0.551-3.872,4.354-5.829,6.807c-1.957-2.453-5.043-6.256-5.829-6.807l-0.4-0.276l-0.482,0.096
			c-2.26,0.469-4.258,1.64-5.636,3.321c-1.502,1.833-2.342,4.161-2.342,6.545v6.848h29.35v-6.848H-625.837z M-628.097,70.48h-24.831
			v-4.589c0-1.86,0.648-3.679,1.819-5.112c0.937-1.144,2.274-1.984,3.789-2.411c1.006,1.061,3.624,4.258,5.925,7.165l0.882,1.116
			l0.882-1.116c2.301-2.921,4.919-6.118,5.911-7.165c1.53,0.427,2.852,1.268,3.789,2.411c1.171,1.433,1.819,3.252,1.819,5.112v4.589
			H-628.097z"/>
		<path fill="#FFFFFF" d="M-668.733,85.156c0,4.354,3.541,7.909,7.909,7.909s7.909-3.541,7.909-7.909
			c0-4.368-3.541-7.909-7.909-7.909c-2.535,0-4.781,1.199-6.228,3.059c-0.344-1.75-0.537-3.528-0.537-5.319
			c0-12.043,7.868-22.516,19.291-25.933c0.565,3.803,3.844,6.738,7.813,6.738c3.955,0,7.234-2.935,7.813-6.738
			c11.423,3.417,19.291,13.89,19.291,25.933c0,1.791-0.193,3.569-0.537,5.319c-1.447-1.86-3.693-3.059-6.228-3.059
			c-4.354,0-7.909,3.541-7.909,7.909c0,4.368,3.541,7.909,7.909,7.909s7.909-3.541,7.909-7.909c0-0.537-0.055-1.061-0.152-1.571
			c0.854-2.77,1.281-5.663,1.281-8.585c0-13.283-8.833-24.789-21.551-28.289c-0.62-3.789-3.9-6.711-7.854-6.711
			c-3.955,0-7.234,2.921-7.799,6.724c-12.732,3.486-21.551,14.992-21.551,28.276c0,2.921,0.441,5.815,1.281,8.585
			C-668.677,84.094-668.733,84.618-668.733,85.156z M-620.187,90.805c-3.114,0-5.65-2.535-5.65-5.65s2.535-5.65,5.65-5.65
			s5.65,2.535,5.65,5.65S-617.073,90.805-620.187,90.805z M-640.512,42.26c3.114,0,5.65,2.535,5.65,5.65
			c0,3.114-2.535,5.65-5.65,5.65c-3.114,0-5.65-2.535-5.65-5.65C-646.162,44.795-643.626,42.26-640.512,42.26z M-660.837,79.52
			c3.114,0,5.65,2.535,5.65,5.65s-2.535,5.65-5.65,5.65s-5.65-2.535-5.65-5.65C-666.487,82.055-663.951,79.52-660.837,79.52z"/>
		<path fill="#FFFFFF" d="M-607.855,96.606L-607.855,96.606c-1.378-1.681-3.376-2.852-5.636-3.321l-0.482-0.096l-0.4,0.276
			c-0.785,0.551-3.872,4.354-5.829,6.807c-1.957-2.453-5.043-6.256-5.829-6.807l-0.4-0.276l-0.482,0.096
			c-2.26,0.469-4.258,1.64-5.636,3.321c-1.144,1.392-1.902,3.087-2.191,4.864c-3.789,0.827-7.785,0.827-11.575,0
			c-0.289-1.778-1.047-3.459-2.191-4.864l0,0c-1.378-1.681-3.376-2.852-5.636-3.321l-0.482-0.096l-0.4,0.276
			c-0.785,0.551-3.872,4.354-5.829,6.807c-1.957-2.453-5.043-6.256-5.829-6.807l-0.4-0.276l-0.482,0.096
			c-2.26,0.469-4.258,1.64-5.636,3.321c-1.488,1.833-2.315,4.161-2.315,6.545V110h29.35v-6.201c1.846,0.358,3.748,0.551,5.65,0.551
			c1.902,0,3.789-0.193,5.65-0.551V110h29.35v-6.848C-605.512,100.768-606.339,98.439-607.855,96.606z M-648.422,107.74h-24.831
			v-4.589c0-1.86,0.648-3.679,1.819-5.112c0.937-1.144,2.274-1.984,3.789-2.411c1.006,1.061,3.624,4.258,5.925,7.165l0.882,1.116
			l0.882-1.116c2.301-2.921,4.919-6.118,5.911-7.165c1.53,0.427,2.852,1.268,3.789,2.411c1.171,1.433,1.819,3.252,1.819,5.112v4.589
			H-648.422z M-607.772,107.74h-24.831v-4.589c0-1.86,0.648-3.679,1.819-5.112c0.937-1.144,2.274-1.984,3.789-2.411
			c1.006,1.061,3.624,4.258,5.925,7.165l0.882,1.116l0.882-1.116c2.301-2.921,4.919-6.118,5.911-7.165
			c1.529,0.427,2.852,1.268,3.789,2.411c1.171,1.433,1.819,3.252,1.819,5.112v4.589H-607.772z"/>
		<rect x="-641.642" y="77.26" fill="#FFFFFF" width="2.26" height="2.26"/>
		<rect x="-637.122" y="77.26" fill="#FFFFFF" width="2.26" height="2.26"/>
		<rect x="-646.162" y="77.26" fill="#FFFFFF" width="2.26" height="2.26"/>
	</g>
	<path fill="#FFFFFF" d="M-640.512,1c40.804,0,74,33.196,74,74s-33.196,74-74,74c-40.804,0-74-33.196-74-74S-681.316,1-640.512,1
		 M-640.512,0c-41.421,0-75,33.579-75,75s33.579,75,75,75c41.421,0,75-33.579,75-75S-599.091,0-640.512,0L-640.512,0z"/>
</g>
<g>
	<g>
		<circle fill="#FFFFFF" cx="-640.512" cy="245" r="75"/>
	</g>
	<g>
		<path fill="#1C3664" d="M-625.837,235.892c0-2.384-0.827-4.713-2.343-6.545l0,0c-1.378-1.681-3.376-2.852-5.636-3.321
			l-0.482-0.096l-0.4,0.276c-0.785,0.551-3.872,4.354-5.829,6.807c-1.957-2.453-5.043-6.256-5.829-6.807l-0.4-0.276l-0.482,0.096
			c-2.26,0.469-4.258,1.64-5.636,3.321c-1.502,1.833-2.342,4.161-2.342,6.545v6.848h29.35v-6.848H-625.837z M-628.097,240.48
			h-24.831v-4.589c0-1.86,0.648-3.679,1.819-5.112c0.937-1.144,2.274-1.984,3.789-2.411c1.006,1.061,3.624,4.258,5.925,7.165
			l0.882,1.116l0.882-1.116c2.301-2.921,4.919-6.118,5.911-7.165c1.53,0.427,2.852,1.268,3.789,2.411
			c1.171,1.433,1.819,3.252,1.819,5.112v4.589H-628.097z"/>
		<path fill="#1C3664" d="M-668.733,255.156c0,4.354,3.541,7.909,7.909,7.909s7.909-3.541,7.909-7.909
			c0-4.368-3.541-7.909-7.909-7.909c-2.535,0-4.781,1.199-6.228,3.059c-0.344-1.75-0.537-3.528-0.537-5.319
			c0-12.043,7.868-22.516,19.291-25.933c0.565,3.803,3.844,6.738,7.813,6.738c3.955,0,7.234-2.935,7.813-6.738
			c11.423,3.417,19.291,13.89,19.291,25.933c0,1.791-0.193,3.569-0.537,5.319c-1.447-1.86-3.693-3.059-6.228-3.059
			c-4.354,0-7.909,3.541-7.909,7.909c0,4.368,3.541,7.909,7.909,7.909s7.909-3.541,7.909-7.909c0-0.537-0.055-1.061-0.152-1.571
			c0.854-2.77,1.281-5.663,1.281-8.585c0-13.283-8.833-24.789-21.551-28.289c-0.62-3.789-3.9-6.711-7.854-6.711
			c-3.955,0-7.234,2.921-7.799,6.724c-12.732,3.486-21.551,14.992-21.551,28.276c0,2.921,0.441,5.815,1.281,8.585
			C-668.677,254.094-668.733,254.618-668.733,255.156z M-620.187,260.805c-3.114,0-5.65-2.535-5.65-5.65
			c0-3.114,2.535-5.65,5.65-5.65s5.65,2.535,5.65,5.65C-614.538,258.27-617.073,260.805-620.187,260.805z M-640.512,212.26
			c3.114,0,5.65,2.535,5.65,5.65c0,3.114-2.535,5.65-5.65,5.65c-3.114,0-5.65-2.535-5.65-5.65
			C-646.162,214.795-643.626,212.26-640.512,212.26z M-660.837,249.52c3.114,0,5.65,2.535,5.65,5.65s-2.535,5.65-5.65,5.65
			s-5.65-2.535-5.65-5.65S-663.951,249.52-660.837,249.52z"/>
		<path fill="#1C3664" d="M-607.855,266.606L-607.855,266.606c-1.378-1.681-3.376-2.852-5.636-3.321l-0.482-0.096l-0.4,0.276
			c-0.785,0.551-3.872,4.354-5.829,6.807c-1.957-2.453-5.043-6.256-5.829-6.807l-0.4-0.276l-0.482,0.096
			c-2.26,0.469-4.258,1.64-5.636,3.321c-1.144,1.392-1.902,3.087-2.191,4.864c-3.789,0.827-7.785,0.827-11.575,0
			c-0.289-1.778-1.047-3.459-2.191-4.864l0,0c-1.378-1.681-3.376-2.852-5.636-3.321l-0.482-0.096l-0.4,0.276
			c-0.785,0.551-3.872,4.354-5.829,6.807c-1.957-2.453-5.043-6.256-5.829-6.807l-0.4-0.276l-0.482,0.096
			c-2.26,0.469-4.258,1.64-5.636,3.321c-1.488,1.833-2.315,4.161-2.315,6.545V280h29.35v-6.201c1.846,0.358,3.748,0.551,5.65,0.551
			c1.902,0,3.789-0.193,5.65-0.551V280h29.35v-6.848C-605.512,270.768-606.339,268.439-607.855,266.606z M-648.422,277.74h-24.831
			v-4.589c0-1.86,0.648-3.679,1.819-5.112c0.937-1.144,2.274-1.984,3.789-2.411c1.006,1.061,3.624,4.258,5.925,7.165l0.882,1.116
			l0.882-1.116c2.301-2.921,4.919-6.118,5.911-7.165c1.53,0.427,2.852,1.268,3.789,2.411c1.171,1.433,1.819,3.252,1.819,5.112v4.589
			H-648.422z M-607.772,277.74h-24.831v-4.589c0-1.86,0.648-3.679,1.819-5.112c0.937-1.144,2.274-1.984,3.789-2.411
			c1.006,1.061,3.624,4.258,5.925,7.165l0.882,1.116l0.882-1.116c2.301-2.921,4.919-6.118,5.911-7.165
			c1.529,0.427,2.852,1.268,3.789,2.411c1.171,1.433,1.819,3.252,1.819,5.112v4.589H-607.772z"/>
		<rect x="-641.642" y="247.26" fill="#1C3664" width="2.26" height="2.26"/>
		<rect x="-637.122" y="247.26" fill="#1C3664" width="2.26" height="2.26"/>
		<rect x="-646.162" y="247.26" fill="#1C3664" width="2.26" height="2.26"/>
	</g>
</g>
<g>
	<path fill="#FFFFFF" d="M90.589,71.373c5.329,0,10.172,2.159,13.654,5.66c3.501,3.501,5.66,8.325,5.66,13.654
		c0,5.329-2.159,10.172-5.66,13.654c-3.501,3.501-8.325,5.66-13.654,5.66c-5.329,0-10.172-2.159-13.654-5.66
		c-3.501-3.501-5.66-8.325-5.66-13.654c0-5.329,2.159-10.172,5.66-13.654C80.436,73.532,85.26,71.373,90.589,71.373z
		 M102.045,41.887v4.999h1.361c0.525,0,0.953,0.428,0.953,0.953v4.357c0,0.525-0.428,0.953-0.953,0.953H99.05
		c-0.525,0-0.953-0.428-0.953-0.953v-4.357c0-0.525,0.428-0.953,0.953-0.953h1.109v-4.999H84.676v4.999h1.303
		c0.525,0,0.953,0.428,0.953,0.953v4.357c0,0.525-0.428,0.953-0.953,0.953h-4.357c-0.525,0-0.953-0.428-0.953-0.953v-4.357
		c0-0.525,0.428-0.953,0.953-0.953h1.167v-4.999H67.308v4.999h1.225c0.525,0,0.953,0.428,0.953,0.953v4.357
		c0,0.525-0.428,0.953-0.953,0.953h-4.357c-0.525,0-0.953-0.428-0.953-0.953v-4.357c0-0.525,0.428-0.953,0.953-0.953h1.225v-4.999
		H49.919v4.999h1.167c0.525,0,0.953,0.428,0.953,0.953v4.357c0,0.525-0.428,0.953-0.953,0.953H46.73
		c-0.525,0-0.953-0.428-0.953-0.953v-4.357c0-0.525,0.428-0.953,0.953-0.953h1.303v-4.999h-2.606c-1.186,0-2.276,0.486-3.073,1.245
		l-0.039,0.039c-0.797,0.797-1.303,1.906-1.303,3.131v50.531c0,1.206,0.506,2.315,1.303,3.112c0.797,0.797,1.906,1.303,3.112,1.303
		h23.943c0.525,0,0.953,0.428,0.953,0.953c0,0.525-0.428,0.953-0.953,0.953H45.427c-1.731,0-3.306-0.72-4.454-1.848
		c-1.148-1.148-1.848-2.723-1.848-4.454V46.321c0-1.731,0.72-3.326,1.848-4.454c0.019-0.019,0.039-0.039,0.058-0.058
		C42.178,40.7,43.734,40,45.427,40h59.147c1.731,0,3.306,0.72,4.454,1.848l0,0l0,0c1.148,1.148,1.848,2.723,1.848,4.454v30.011
		c0,0.525-0.428,0.953-0.953,0.953s-0.953-0.428-0.953-0.953V46.302c0-1.206-0.506-2.315-1.303-3.112l0,0
		c-0.797-0.797-1.906-1.303-3.131-1.303h-2.528H102.045z M102.453,48.772h-2.47v2.47h2.47V48.772z M85.007,48.772h-2.47v2.47h2.47
		V48.772z M67.56,48.772h-2.47v2.47h2.47V48.772z M50.114,48.772h-2.47v2.47h2.47V48.772z M100.275,83.84
		c0.37-0.37,0.972-0.37,1.342,0c0.37,0.37,0.37,0.972,0,1.342l-11.65,11.65l0,0c-0.642,0.642-1.498,0.972-2.353,0.972
		c-0.856,0-1.712-0.331-2.353-0.972l0,0l0,0l0,0l-5.718-5.718c-0.37-0.37-0.37-0.972,0-1.342c0.37-0.37,0.972-0.37,1.342,0
		l5.718,5.718l0,0l0,0c0.272,0.272,0.661,0.428,1.031,0.428c0.37,0,0.739-0.136,1.031-0.428l0,0l11.65-11.65H100.275z
		 M102.881,78.355c-3.151-3.151-7.508-5.096-12.312-5.096c-4.804,0-9.161,1.945-12.312,5.096c-3.151,3.151-5.096,7.508-5.096,12.312
		c0,4.804,1.945,9.161,5.096,12.312c3.151,3.151,7.508,5.096,12.312,5.096c4.804,0,9.161-1.945,12.312-5.096
		c3.151-3.151,5.096-7.508,5.096-12.312C107.977,85.863,106.032,81.506,102.881,78.355z"/>
	<path fill="#FFFFFF" d="M75,1c40.804,0,74,33.196,74,74s-33.196,74-74,74S1,115.804,1,75S34.196,1,75,1 M75,0
		C33.579,0,0,33.579,0,75s33.579,75,75,75s75-33.579,75-75S116.421,0,75,0L75,0z"/>
</g>
</svg>
