<?xml version="1.0" encoding="utf-8"?>
<!-- Generator: Adobe Illustrator 17.0.0, SVG Export Plug-In . SVG Version: 6.00 Build 0)  -->
<!DOCTYPE svg PUBLIC "-//W3C//DTD SVG 1.1//EN" "http://www.w3.org/Graphics/SVG/1.1/DTD/svg11.dtd">
<svg version="1.1" id="Layer_1" xmlns="http://www.w3.org/2000/svg" xmlns:xlink="http://www.w3.org/1999/xlink" x="0px" y="0px"
	 width="303.292px" height="50px" viewBox="0 0 303.292 50" enable-background="new 0 0 303.292 50" xml:space="preserve">
<g>
	<g>
		<path fill-rule="evenodd" clip-rule="evenodd" fill="#FFFFFF" d="M55.854,9.458c0-0.785,0.222-0.953,1.009-0.953l3.509,0
			c0.757,0,0.947,0.2,0.947,0.953c0,0.832-0.014,1.228-0.947,1.228C56.508,10.687,55.854,11.106,55.854,9.458L55.854,9.458z
			 M22.733,2.891c-0.308,0.3-0.375,0.779-0.341,1.2c0.86,0.011,1.893-0.127,2.781-0.159c1.075-0.038,2.065,0.086,3.116,0.111
			c2.108-0.064,6.146,1.406,7.796,2.208c2.576,1.253,4.267,2.557,6.023,4.154c8.12,7.379,10.061,19.881,4.303,29.796
			c-1.809,3.115-4.603,5.989-7.436,7.846l-3.146,1.886c1.9,0.141,9.373,0.019,11.868,0.019c3.961,0,7.923,0,11.884,0
			c2.167,0,3.41,0.162,4.975-0.883c1.011-0.674,2.115-2.084,2.111-3.842l-0.002-32.599c0.002-1.252-0.002-1.534-0.463-2.542
			c-1.607-3.515-5.618-2.737-9.11-2.737c-1.768,0-10.965,0.119-11.884-0.057c-0.258-0.571-0.661-2.532-0.823-3.24
			c-0.287-1.257-0.541-2.014-1.283-2.786c-1.613-1.679-4.114-1.203-6.949-1.203c-2.716,0-5.433,0-8.149,0
			c-1.431,0-2.429-0.151-3.524,0.551C23.851,1.016,22.834,1.967,22.733,2.891L22.733,2.891z"/>
		<path fill-rule="evenodd" clip-rule="evenodd" fill="#FFFFFF" d="M1.556,30.058c-0.406-3.773,0.377-7.805,1.557-10.841
			c1.287-3.311,2.93-5.499,4.813-7.652c0.89-1.018,2.425-2.071,4.48-1.338c0.707,0.252,1.454,0.709,1.952,1.104
			c0.578,0.459,0.508,1.871,0.534,2.654c0.139,4.106,0.014,8.433,0.014,12.563c0,1.862,0.163,17.442-0.155,18.547
			c-0.173,0.601-2.619,2.015-4.491,1.231c-1.802-0.754-4.697-4.73-5.772-6.678C2.937,36.839,1.958,33.793,1.556,30.058L1.556,30.058
			z M27.71,49.905l0.013-1.214c-2.547-0.443-6.063,1.025-6.41-4.71c-0.212-3.506-0.038-7.532-0.038-11.094V16.249
			c0-1.797-0.102-3.918,0.022-5.674c3.699-0.565,6.162-1.148,9.423,0.693c5.097,2.876,5.92,11.553,1.489,15.416
			c-2.499,2.179-4.742,2.158-8.359,2.964l-0.007,0.797c18.483,2.964,21.538-10.842,16.91-17.213
			c-3.444-4.741-8.29-5.306-13.677-5.771c-2.968-0.256-6.67-0.07-9.714-0.07c-3.256,0-6.348-0.057-9.62-0.041
			C6.241,7.357,4.518,7.16,3.199,7.652c-4.138,1.543-3.077,6.692-3.077,11.54v24.334c0,1.786-0.103,2.826,0.742,4.163
			c1.749,2.768,4.79,2.231,7.446,2.266C9.415,49.97,26.889,50.038,27.71,49.905L27.71,49.905z"/>
	</g>
	<g>
		<path fill-rule="evenodd" clip-rule="evenodd" fill="#FFFFFF" d="M89.762,15.544c1.802-1.194,5.561-0.595,7.152,0.373
			c1.77,1.076,2.947,2.961,2.905,5.821c-0.094,6.404-6.664,7.911-10.076,5.742L89.762,15.544L89.762,15.544z M77.802,12.354
			c-0.209,0.13-0.088-0.058-0.134,0.304c-0.007,0.055,0.002,0.352,0.003,0.429c0.003,0.291-0.002,0.518,0.032,0.809l1.759,0.092
			c1.474-0.117,2.591,0.851,3.024,1.842c0.56,1.279,0.458,2.912,0.458,4.409c0,6.073,0.139,13.544-0.007,19.429
			c-0.098,3.933-1.443,4.367-5.195,4.505l-0.012,1.585l17.287-0.034l-0.024-1.537c-3.494-0.35-5.077-0.007-5.239-4.629l0.003-9.777
			c0.227,0.039,1.665,0.875,3.05,1.249c3.553,0.96,7.507,0.403,10.449-1.514c4.02-2.619,5.528-7.805,3.248-11.771
			c-3.732-6.494-12.883-5.414-20.211-5.414C83.696,12.333,80.304,12.145,77.802,12.354L77.802,12.354z"/>
		<path fill-rule="evenodd" clip-rule="evenodd" fill="#FFFFFF" d="M225.827,27.524c0.432-0.939,2.724-6.172,3.1-6.52l6.529,13.148
			c-2.39,0.016-10.901,0.106-12.625-0.027L225.827,27.524L225.827,27.524z M223.856,44.171c-5.699-0.304-4.322-3.359-2.289-7.361
			l15.315,0.009c0.694,1.269,1.792,3.057,2.238,4.472c0.853,2.71-1.041,2.773-3.293,2.883l-0.011,1.585l15.105-0.01l-0.043-1.581
			c-2.485-0.22-3.196-0.644-4.2-2.325c-0.739-1.236-1.519-2.981-2.18-4.326c-1.409-2.863-2.824-5.783-4.315-8.606
			c-2.078-3.933-4.38-8.818-6.47-12.95l-2.152-4.235l-1.366,0.01c-0.706,1.217-1.375,3.001-2.025,4.363l-5.97,13.022
			c-1.324,2.906-2.623,5.827-3.999,8.711c-1.603,3.359-2.459,5.74-6.248,6.36l-0.008,1.569l11.95-0.007L223.856,44.171
			L223.856,44.171z"/>
		<path fill-rule="evenodd" clip-rule="evenodd" fill="#FFFFFF" d="M207.29,21.739c0.079-0.608-0.617-9.663-0.727-9.875
			c-0.193-0.252-1.234-0.143-1.519-0.107c-0.619,3.941-4.083,0.364-10.528-0.006c-7.668-0.44-15.257,3.219-18.835,9.711
			c-1.86,3.374-2.642,7.435-1.572,11.836c3.578,14.711,23.869,17.102,31.545,8.211c0.627-0.726,2.605-3.067,2.884-4.191
			c-0.376-0.328-1.074-0.872-1.505-1.054c-0.342,0.674-0.825,1.239-1.277,1.824c-1.237,1.597-2.953,3.16-4.862,4.104
			c-2.96,1.463-6.548,1.876-10.029,0.932c-13.182-3.576-12.414-25.482,0.023-28.651c7.426-1.892,13,3.428,14.895,8.333
			c0.386,0.195,1.17,0.131,1.647,0.077l-0.026-0.926C207.35,21.762,207.359,21.839,207.29,21.739L207.29,21.739z"/>
		<path fill-rule="evenodd" clip-rule="evenodd" fill="#FFFFFF" d="M165.759,38.864c-0.917,1.081-2.749,2.591-4.173,3.3
			c-8.427,4.198-19.841-0.516-19.645-13.389c0.201-13.186,11.57-17.805,19.267-12.575c1.681,1.142,3.334,2.918,4.302,4.663
			c0.276,0.498,0.716,1.631,0.972,1.999l1.576-0.015l-0.871-11.007c-0.27-0.193-1.228-0.124-1.519-0.076
			c-0.547,3.926-4.199,0.34-10.538-0.013c-12.538-0.699-23.378,9.435-20.392,21.537c1.704,6.907,7.607,12.113,15.407,13.174
			c4.328,0.588,8.936,0.017,12.185-1.849c2.727-1.566,5.779-4.563,6.873-7.298c-0.468-0.339-0.965-0.728-1.468-1.036L165.759,38.864
			L165.759,38.864z"/>
		<path fill-rule="evenodd" clip-rule="evenodd" fill="#FFFFFF" d="M248.937,20.261l1.449,0.011c0.489-0.97,0.313-3.724,3.382-4.829
			c1.705-0.614,5.77-0.709,7.769-0.525c0.158,2.752,0.016,5.938,0.016,8.738c0,3.012,0.19,15.351-0.159,17.338
			c-0.612,3.485-3.178,3.016-5.565,3.195l-0.037,1.543l18.27,0.028l-0.013-1.591c-3.2,0.003-5.146-0.025-5.602-3.172
			c-0.294-2.033-0.125-14.282-0.125-17.342c0-2.861-0.092-5.875,0.009-8.717c1.425-0.264,6.548-0.053,7.851,0.398
			c1.977,0.684,2.825,2.205,3.115,4.135c0.149,0.991-0.127,0.791,1.683,0.787l-0.209-7.926l-31.678,0.001
			C249.067,13.813,248.717,19.321,248.937,20.261L248.937,20.261z"/>
		<path fill-rule="evenodd" clip-rule="evenodd" fill="#FFFFFF" d="M113.637,13.975c3.722-0.146,3.71,3.039,3.709,6.266
			c0,2.19,0.114,18.292-0.044,20.033c-0.438,4.828-3.436,3.504-5.976,3.936l-0.005,1.548l18.47-0.013
			c0.18-0.189,0.068,0.159,0.136-0.31l-0.028-1.247c-0.487-0.163-1.339-0.13-1.859-0.086c-3.566,0.251-3.888-2.737-3.888-5.501
			l0.001-18.786c-0.002-2.334-0.055-5.949,3.503-5.801l2.24-0.076l0.033-1.278c-0.067-0.462,0.041-0.123-0.134-0.306l-18.391-0.011
			c-0.199,0.145-0.086-0.034-0.128,0.316c-0.008,0.063,0.002,0.347,0.003,0.43c0.003,0.305-0.004,0.511,0.04,0.815L113.637,13.975
			L113.637,13.975z"/>
		<path fill-rule="evenodd" clip-rule="evenodd" fill="#FFFFFF" d="M287.37,14.049c0.547-0.144,1.59,0.23,1.986,0.487
			c1.699,1.102,1.455,3.893,1.455,5.918c0,2.119,0.109,18.165-0.047,19.832c-0.365,3.909-2.182,3.831-5.959,3.888l-0.016,1.585
			l18.503,0V44.17c-4.143,0-5.517-0.407-5.665-4.717c-0.116-3.381-0.011-6.952-0.011-10.354c0-3.416-0.09-6.953,0.007-10.354
			c0.124-4.392,1.419-4.837,5.669-4.837v-1.576l-18.414,0.019c-0.217,0.137-0.135,0.381-0.132,0.735
			c0.003,0.289-0.004,0.514,0.032,0.803L287.37,14.049L287.37,14.049z"/>
	</g>
</g>
</svg>
