<?xml version="1.0" encoding="utf-8"?>
<!-- Generator: Adobe Illustrator 17.0.0, SVG Export Plug-In . SVG Version: 6.00 Build 0)  -->
<!DOCTYPE svg PUBLIC "-//W3C//DTD SVG 1.1//EN" "http://www.w3.org/Graphics/SVG/1.1/DTD/svg11.dtd">
<svg version="1.1" id="Layer_1" xmlns="http://www.w3.org/2000/svg" xmlns:xlink="http://www.w3.org/1999/xlink" x="0px" y="0px"
	 width="51.127px" height="38.346px" viewBox="0 0 51.127 38.346" enable-background="new 0 0 51.127 38.346" xml:space="preserve">
<g>
	<g>
		<path fill-rule="evenodd" clip-rule="evenodd" fill="#FFFFFF" d="M42.836,7.254c0-0.602,0.17-0.731,0.774-0.731l2.691,0
			c0.581,0,0.726,0.153,0.726,0.731c0,0.638-0.01,0.942-0.726,0.942C43.337,8.196,42.836,8.518,42.836,7.254L42.836,7.254z
			 M17.434,2.217c-0.236,0.23-0.287,0.597-0.262,0.92c0.66,0.008,1.452-0.098,2.133-0.122c0.825-0.029,1.584,0.066,2.39,0.085
			c1.617-0.049,4.714,1.078,5.979,1.693c1.975,0.961,3.272,1.961,4.619,3.186c6.227,5.659,7.716,15.247,3.3,22.851
			c-1.387,2.389-3.53,4.593-5.703,6.017l-2.413,1.446c1.457,0.108,7.188,0.014,9.102,0.014c3.038,0,6.076,0,9.114,0
			c1.662,0,2.615,0.124,3.816-0.677c0.775-0.517,1.622-1.598,1.619-2.946L51.126,9.684c0.001-0.96-0.001-1.176-0.355-1.95
			c-1.233-2.695-4.309-2.099-6.987-2.099c-1.356,0-8.409,0.091-9.114-0.044c-0.198-0.438-0.507-1.942-0.631-2.485
			c-0.22-0.964-0.415-1.545-0.984-2.136c-1.237-1.287-3.155-0.923-5.329-0.923c-2.083,0-4.166,0-6.25,0
			c-1.097,0-1.863-0.116-2.702,0.423C18.292,0.78,17.512,1.508,17.434,2.217L17.434,2.217z"/>
		<path fill-rule="evenodd" clip-rule="evenodd" fill="#FFFFFF" d="M1.193,23.052c-0.311-2.894,0.289-5.985,1.194-8.314
			c0.987-2.539,2.247-4.217,3.691-5.868c0.683-0.781,1.86-1.589,3.436-1.026c0.542,0.193,1.115,0.544,1.497,0.847
			c0.443,0.352,0.389,1.435,0.41,2.035c0.106,3.149,0.011,6.467,0.011,9.635c0,1.428,0.125,13.376-0.119,14.224
			c-0.133,0.461-2.009,1.545-3.445,0.944c-1.382-0.578-3.602-3.627-4.427-5.121C2.253,28.253,1.501,25.917,1.193,23.052
			L1.193,23.052z M21.252,38.273l0.01-0.931c-1.953-0.34-4.65,0.786-4.916-3.612c-0.163-2.689-0.029-5.777-0.029-8.508v-12.76
			c0-1.378-0.078-3.004,0.017-4.352c2.837-0.433,4.725-0.88,7.227,0.531c3.909,2.205,4.54,8.86,1.142,11.823
			c-1.916,1.671-3.637,1.655-6.411,2.273l-0.005,0.611c14.175,2.273,16.518-8.315,12.969-13.201
			c-2.642-3.636-6.358-4.069-10.489-4.426c-2.276-0.197-5.115-0.053-7.45-0.053c-2.497,0-4.869-0.044-7.378-0.031
			C4.787,5.642,3.465,5.492,2.453,5.869c-3.173,1.183-2.36,5.132-2.36,8.85v18.662c0,1.369-0.079,2.167,0.569,3.193
			c1.341,2.123,3.674,1.711,5.71,1.738C7.22,38.323,20.622,38.376,21.252,38.273L21.252,38.273z"/>
	</g>
</g>
</svg>
