<?xml version="1.0" encoding="utf-8"?>
<!-- Generator: Adobe Illustrator 17.0.0, SVG Export Plug-In . SVG Version: 6.00 Build 0)  -->
<!DOCTYPE svg PUBLIC "-//W3C//DTD SVG 1.1//EN" "http://www.w3.org/Graphics/SVG/1.1/DTD/svg11.dtd">
<svg version="1.1" id="Layer_1" xmlns="http://www.w3.org/2000/svg" xmlns:xlink="http://www.w3.org/1999/xlink" x="0px" y="0px"
	 width="45.244px" height="35px" viewBox="0 0 45.244 35" enable-background="new 0 0 45.244 35" xml:space="preserve">
<g>
	<g>
		<path fill="#FFFFFF" d="M44.817,5.122h-8.11V0.427C36.707,0.191,36.516,0,36.28,0H22.622c-0.236,0-0.427,0.191-0.427,0.427v4.695
			h-9.39v-1.28c0-0.236-0.191-0.427-0.427-0.427H5.549c-0.114,0-0.222,0.045-0.302,0.125c-0.08,0.079-0.125,0.19-0.125,0.302
			c0,0,0,0.776,0,1.28H0.427C0.191,5.122,0,5.313,0,5.549v29.024C0,34.809,0.191,35,0.427,35h44.39c0.236,0,0.427-0.191,0.427-0.427
			V5.549C45.244,5.313,45.053,5.122,44.817,5.122z M44.39,34.146H0.854V5.976h4.695c0.427,0,0.427-0.385,0.427-0.693V4.268h5.976
			v1.28c0,0.236,0.191,0.427,0.427,0.427h10.244c0.236,0,0.427-0.191,0.427-0.427V0.854h12.805v4.695
			c0,0.236,0.191,0.427,0.427,0.427h8.11V34.146z"/>
		<path fill="#FFFFFF" d="M8.963,8.537c-0.236,0-0.427,0.191-0.427,0.427v20.488c0,0.236,0.191,0.427,0.427,0.427
			c0.236,0,0.427-0.191,0.427-0.427V8.963C9.39,8.728,9.199,8.537,8.963,8.537z"/>
		<circle fill="#FFFFFF" cx="13.232" cy="9.817" r="0.854"/>
		<path fill="#FFFFFF" d="M17.073,19.207c0,6.825,5.553,12.378,12.378,12.378s12.378-5.553,12.378-12.378S36.276,6.829,29.451,6.829
			S17.073,12.382,17.073,19.207z M40.976,19.207c0,6.355-5.17,11.524-11.524,11.524s-11.524-5.17-11.524-11.524
			s5.17-11.524,11.524-11.524S40.976,12.853,40.976,19.207z"/>
		<path fill="#FFFFFF" d="M20.488,19.207c0,4.943,4.021,8.963,8.963,8.963s8.963-4.021,8.963-8.963s-4.021-8.963-8.963-8.963
			S20.488,14.265,20.488,19.207z M37.561,19.207c0,4.471-3.638,8.11-8.11,8.11s-8.11-3.638-8.11-8.11s3.638-8.11,8.11-8.11
			S37.561,14.736,37.561,19.207z"/>
		<path fill="#FFFFFF" d="M29.024,14.085c0,0.236,0.191,0.427,0.427,0.427c2.588,0,4.695,2.106,4.695,4.695
			c0,0.236,0.191,0.427,0.427,0.427S35,19.443,35,19.207c0-3.06-2.489-5.549-5.549-5.549C29.216,13.659,29.024,13.85,29.024,14.085z
			"/>
		<path fill="#FFFFFF" d="M29.451,22.195c-1.648,0-2.988-1.34-2.988-2.988c0-0.236-0.191-0.427-0.427-0.427
			s-0.427,0.191-0.427,0.427c0,2.118,1.724,3.841,3.841,3.841c0.236,0,0.427-0.191,0.427-0.427
			C29.878,22.386,29.687,22.195,29.451,22.195z"/>
		<path fill="#FFFFFF" d="M26.037,4.268h6.829c0.236,0,0.427-0.191,0.427-0.427s-0.191-0.427-0.427-0.427h-6.829
			c-0.236,0-0.427,0.191-0.427,0.427C25.61,4.077,25.801,4.268,26.037,4.268z"/>
	</g>
</g>
</svg>
